<?xml version="1.0" encoding="UTF-8" standalone="no"?>
<!-- Created with Inkscape (http://www.inkscape.org/) -->

<svg
   version="1.1"
   id="svg2"
   width="1230.6267"
   height="669.70667"
   viewBox="0 0 1230.6267 669.70667"
   sodipodi:docname="bird-logo.eps"
   xmlns:inkscape="http://www.inkscape.org/namespaces/inkscape"
   xmlns:sodipodi="http://sodipodi.sourceforge.net/DTD/sodipodi-0.dtd"
   xmlns="http://www.w3.org/2000/svg"
   xmlns:svg="http://www.w3.org/2000/svg">
  <defs
     id="defs6" />
  <sodipodi:namedview
     id="namedview4"
     pagecolor="#ffffff"
     bordercolor="#000000"
     borderopacity="0.25"
     inkscape:showpageshadow="2"
     inkscape:pageopacity="0.0"
     inkscape:pagecheckerboard="0"
     inkscape:deskcolor="#d1d1d1" />
  <g
     id="g8"
     inkscape:groupmode="layer"
     inkscape:label="ink_ext_XXXXXX"
     transform="matrix(1.3333333,0,0,-1.3333333,0,669.70667)">
    <g
       id="g10"
       transform="scale(0.1)">
      <path
         d="m 7362.38,1328.11 c 171.69,149.38 246.72,255.31 258.87,273.34 45.17,66.93 27.45,157.81 -39.5,202.96 -66.96,45.1 -157.81,27.46 -202.94,-39.54 -6.15,-9.12 -319.79,-449.17 -1305.52,-845.741 419.61,97.791 853.08,230.971 1289.09,408.981"
         style="fill:#d34c22;fill-opacity:1;fill-rule:nonzero;stroke:none"
         id="path12" />
      <path
         d="m 3871.38,281.41 c -173.05,0 -349.33,4.242 -523.85,12.52 -126.46,6.031 -249.71,14.199 -370.24,23.781 -797.3,-43.539 -1729.81,-33 -2818.806,58.648 C 77.7227,383.68 7.33203,323.379 0.527344,242.949 -6.27734,162.469 53.4961,91.7617 133.922,84.9922 833.105,26.1211 1469.93,-0.0078125 2049.6,-0.0078125 3544.16,-0.0078125 4658.09,173.652 5480.7,406.602 4891.58,313.469 4344.01,281.41 3871.38,281.41"
         style="fill:#d34c22;fill-opacity:1;fill-rule:nonzero;stroke:none"
         id="path14" />
      <path
         d="m 3875.88,622.852 c -174.66,-0.071 -342.92,3.918 -502.79,11.398 -1623.98,76.152 -2800.703,491.86 -2812.402,496.05 -76.008,27.13 -159.668,-12.27 -186.946,-88.28 -27.269,-76 12.184,-159.661 88.192,-186.938 49.109,-17.66 1222.356,-432.941 2887.936,-512.473 165.9,-7.898 340.04,-12.468 521.51,-12.468 324,0 670.9,14.64 1033.68,50.39 -369.57,69.699 -713.39,152.231 -1029.18,242.321"
         style="fill:#e6b31c;fill-opacity:1;fill-rule:nonzero;stroke:none"
         id="path16" />
      <path
         d="m 9202.21,2141.58 c -47.12,65.54 -138.54,80.53 -204.03,33.34 C 7789.94,1306.23 6489.8,895.742 5320.57,725.801 c 302.82,-47.742 622.46,-85.34 957.91,-110.442 950.8,235.442 1946.9,643.821 2890.36,1322.181 65.59,47.11 80.53,138.5 33.37,204.04"
         style="fill:#e6b31c;fill-opacity:1;fill-rule:nonzero;stroke:none"
         id="path18" />
      <path
         d="m 6331.21,2436.41 c -30.49,-25 -56.18,-43.62 -85.12,-62.26 -27.94,-19.28 -56.65,-36.38 -85.52,-53.1 -28.52,-17.57 -57.78,-33.39 -87.49,-48.17 -29.75,-14.64 -58.54,-31.73 -89.15,-44.28 -60.64,-26.58 -120.81,-54.61 -183.59,-75.4 l -93.57,-32.84 -95.64,-25.55 c -31.94,-8.23 -63.62,-17.6 -95.76,-24.8 l -97.13,-18.13 -97.1,-17.99 -98.05,-10.44 c -130.65,-16.65 -262.23,-12.64 -392.8,-11.81 -65.16,5.52 -130.31,10.07 -195.17,16.85 -65.22,3.7 -128.63,20.43 -192.68,30.97 l -95.73,17.88 -47.77,8.94 -46.83,13.14 -186.19,54.72 c -62.48,16.23 -122.22,40.91 -181.84,65.34 l -178.44,72.57 c -115.49,56.06 -228.12,117.52 -339.45,178.79 122.71,-37.2 242,-79.82 362.3,-117.59 l 183.09,-47.56 c 61.01,-15.17 120.6,-34.64 182.89,-43.52 123.29,-22.43 245.15,-48.36 369.24,-58.07 123.05,-18.41 247.11,-15.89 370.18,-21.87 123.07,4.68 246.23,7.28 367.34,26.91 l 91.22,10.95 89.89,18.19 89.89,18.05 c 29.67,7.12 58.79,16.34 88.21,24.37 l 88.06,24.82 86.04,30.56 c 58.28,18.16 113.62,43.22 169.68,66.66 28.43,11.03 54.55,26.31 81.97,39.21 1.45,0.7 2.78,1.56 4.23,2.26 -64.95,10.83 -129.79,21.54 -192.84,41.14 -154.59,40.55 -302.64,103.56 -440.61,181.18 -138.08,77.81 -265.66,172.63 -377.82,282.06 -113,107.99 -212.4,230.45 -288.03,365.02 100.36,-116.93 215.72,-217.44 336.74,-307.44 121.87,-88.88 250.63,-166.88 387.14,-226.05 135.66,-60.05 275.61,-110.12 420.77,-135.99 71.34,-18.05 144.81,-24.84 217.57,-34.19 36.19,-6.2 73.27,-4.93 109.92,-6.71 l 110.02,-3.69 2.7,-0.09 c 50.78,-1.7 90.55,-44.23 88.85,-95 -0.92,-27.4 -14.03,-51.84 -33.62,-68.04 z M 4818.46,1049.54 c -4.14,-2.95 -7.98,-6.17 -11.64,-9.51 h -228.88 c -5.23,23.01 -16.79,43.6 -32.9,59.74 l 328.41,198.4 c 111.58,4.89 222.4,13.93 332.02,26.83 z m 3409.3,1919.35 C 4252.11,2099.42 5091.24,5411.57 2809.37,4984.63 2502.84,4927.29 2024.21,4538.07 2024.21,4538.07 l -1060.019,27.06 c -42.285,-15.35 -62.933,-63.04 -45.144,-104.36 68.523,-159.08 800.513,-747.12 800.513,-747.12 71.46,-942.19 876.68,-2008.43 1872.57,-2278.48 267.59,-72.56 540.04,-115.57 811.43,-132.69 L 4168.5,1160.47 c -11.24,-6.8 -20.98,-15.13 -29.17,-24.51 h -217.52 c -47.22,0 -87.75,-26.86 -108.48,-65.83 338.64,-102.911 713.16,-197.97 1121.85,-276.771 h 118.18 c 68.12,0 123.33,55.223 123.33,123.34 0,25.871 -7.99,49.852 -21.61,69.692 l 622.76,443.249 c 903.1,225.12 2203.93,844.19 2531.53,1417.29 33.58,58.76 -15.51,136.42 -81.61,121.96"
         style="fill:#39747f;fill-opacity:1;fill-rule:nonzero;stroke:none"
         id="path20" />
      <path
         d="m 7193.11,228.34 c -2097.47,0 -3701.04,509.379 -4712.52,962.7 -1221.4,547.4 -1855.512,1120.92 -1881.879,1145.08 -59.586,54.5 -63.727,146.97 -9.231,206.55 54.493,59.59 146.821,63.68 206.5,9.28 v 0 C 802.168,2546.29 1430,1980.32 2612.81,1452.22 3703.57,965.262 5503.55,411.43 7884.57,539.449 c 80.3,4.051 149.54,-57.5 153.87,-138.16 4.33,-80.617 -57.54,-149.527 -138.16,-153.867 C 7658.7,234.48 7422.93,228.34 7193.11,228.34"
         style="fill:#6f7350;fill-opacity:1;fill-rule:nonzero;stroke:none"
         id="path22" />
    </g>
  </g>
</svg>
