<?xml version="1.0" encoding="UTF-8" standalone="no"?>
<!-- Created with Inkscape (http://www.inkscape.org/) -->

<svg
   version="1.1"
   id="svg2"
   width="1222.5468"
   height="587.4267"
   viewBox="0 0 1222.5468 587.4267"
   sodipodi:docname="logo GLC.eps"
   xmlns:inkscape="http://www.inkscape.org/namespaces/inkscape"
   xmlns:sodipodi="http://sodipodi.sourceforge.net/DTD/sodipodi-0.dtd"
   xmlns="http://www.w3.org/2000/svg"
   xmlns:svg="http://www.w3.org/2000/svg">
  <defs
     id="defs6" />
  <sodipodi:namedview
     id="namedview4"
     pagecolor="#ffffff"
     bordercolor="#000000"
     borderopacity="0.25"
     inkscape:showpageshadow="2"
     inkscape:pageopacity="0.0"
     inkscape:pagecheckerboard="0"
     inkscape:deskcolor="#d1d1d1" />
  <g
     id="g8"
     inkscape:groupmode="layer"
     inkscape:label="ink_ext_XXXXXX"
     transform="matrix(1.3333333,0,0,-1.3333333,0,587.42667)">
    <g
       id="g10"
       transform="scale(0.1)">
      <path
         d="m 628.191,3913.72 c 113.11,0 223.606,-38.06 310.539,-106.66 10.551,-9.65 25.411,-14.65 40.555,-13.89 16.516,0.9 31.165,8.38 41.595,21.51 9.54,13.37 13.41,29.03 10.88,44.1 -2.39,14.43 -10.55,27.23 -22.47,35.71 -105.595,83.47 -240.927,129.44 -381.099,129.44 -338.078,0 -613.1285,-267.35 -613.1285,-595.97 0,-329.55 275.0315,-599 613.1285,-600.65 137.981,0 273.211,45.88 381.309,129.62 l 2.81,2.49 c 8.82,8.77 12.61,17.93 14.9,24.85 l 1.31,3.86 0.55,3.16 c 1.54,5.53 1.54,10.06 1.54,12.1 v 396.46 c 0,32.21 -23.86,57.45 -54.301,57.45 H 618.84 c -29.777,0 -55.891,-26.84 -55.891,-57.45 0,-28.94 26.114,-54.32 55.891,-54.32 h 300.004 v -316.04 c -84.821,-58.34 -187.789,-90.4 -290.653,-90.4 -276.433,0 -501.347,219.3 -501.347,488.87 0,267.84 224.914,485.76 501.347,485.76"
         style="fill:#39747f;fill-opacity:1;fill-rule:nonzero;stroke:none"
         id="path12" />
      <path
         d="m 1847.62,3651.17 c 0,-125.73 -98.91,-225.28 -225.08,-226.65 h -268.8 v 456.41 h 265.68 c 125.83,0 228.2,-103.07 228.2,-229.76 z m 110.56,-694.69 c -4.62,9.92 -19.08,48.55 -19.08,142.12 0,106.93 -54.4,200.71 -149.63,258.95 105.31,59.25 169.91,170.03 169.91,293.62 0,187.46 -152.51,339.98 -339.96,339.98 h -320 c -30.29,0 -55.87,-25.6 -55.87,-55.89 V 2883.19 c 0,-30.29 25.58,-55.88 55.87,-55.88 30.46,0 54.32,24.55 54.32,55.88 v 429.57 l 258,0.1 c 3.29,-0.46 15.32,-2.34 31.41,-7.35 27.63,-10.04 79.07,-28.72 119.56,-64.89 44.52,-39.75 66.16,-86.2 66.16,-142.02 0,-93.97 10.55,-153.74 33.92,-193.25 22.86,-44.93 61.43,-60.87 87.53,-60.87 7.82,0 20.75,0 31.99,7.13 9.48,4.13 17.38,11.01 22.9,19.92 8.11,13.09 10.35,29.13 6.29,43.44 -5.77,26.11 -30.56,40.84 -53.32,41.51"
         style="fill:#39747f;fill-opacity:1;fill-rule:nonzero;stroke:none"
         id="path14" />
      <path
         d="m 2808.86,3880.93 c 30.96,0 54.32,23.35 54.32,54.33 0,31.34 -23.86,55.89 -54.32,55.89 l -579.44,-0.01 -7.22,-0.27 c -28.91,-3.62 -49.89,-27.01 -49.89,-55.61 V 2883.19 c 0,-31.86 23.36,-55.88 54.32,-55.88 h 582.23 c 30.46,0 54.32,24.55 54.32,55.88 0,30.98 -23.36,54.34 -54.32,54.34 h -526.34 v 417.36 h 459.21 c 30.96,0 54.32,24.02 54.32,55.89 0,29.95 -24.38,54.33 -54.32,54.33 h -459.21 v 415.82 h 526.34"
         style="fill:#39747f;fill-opacity:1;fill-rule:nonzero;stroke:none"
         id="path16" />
      <path
         d="m 3665.79,3880.93 c 30.96,0 54.32,23.35 54.32,54.33 0,31.34 -23.86,55.89 -54.32,55.89 l -579.44,-0.01 -7.22,-0.27 c -28.91,-3.62 -49.89,-27.01 -49.89,-55.61 V 2883.19 c 0,-31.86 23.36,-55.88 54.32,-55.88 h 582.23 c 30.46,0 54.32,24.55 54.32,55.88 0,30.98 -23.36,54.34 -54.32,54.34 h -526.34 v 417.36 h 459.21 c 30.98,0 54.34,24.02 54.34,55.89 0,29.95 -24.37,54.33 -54.34,54.33 h -459.21 v 415.82 h 526.34"
         style="fill:#39747f;fill-opacity:1;fill-rule:nonzero;stroke:none"
         id="path18" />
      <path
         d="m 4699.13,3983.34 c -29.78,0 -55.89,-26.12 -55.89,-55.89 v -872.99 l -657.77,913.96 c -17.4,21.79 -47.67,26.59 -73.56,11.79 l -7.47,-5.74 c -11.58,-11.59 -18.25,-27.01 -18.25,-42.33 V 2883.19 c 0,-29.77 26.11,-55.88 55.89,-55.88 30.46,0 54.32,24.55 54.32,55.88 V 3764 l 650.35,-903.41 c 1.78,-3.85 4.18,-7.27 7.1,-10.2 10.54,-14.48 27.38,-23.08 45.28,-23.08 30.45,0 54.31,24.55 54.31,55.88 v 1044.26 c 0,31.34 -23.86,55.89 -54.31,55.89"
         style="fill:#39747f;fill-opacity:1;fill-rule:nonzero;stroke:none"
         id="path20" />
      <path
         d="m 5447.74,2862.96 v 0 -0.03 z m 489.87,1096.54 c -6.08,11.54 -16.12,20.26 -28.31,24.58 -13.2,5.59 -28.47,5.62 -42,0.01 -13.61,-5.64 -24.23,-16.52 -28.99,-29.42 l -391.41,-928.23 -390.69,929.75 -2.76,5.04 c -15.89,23.85 -44.97,33.2 -70.29,22.94 -13.39,-4.88 -24.32,-15.49 -30.03,-29.17 -6,-14.48 -5.73,-30.75 0.4,-42.9 l 442.82,-1052.85 c 2.39,-4.69 6.81,-13.46 15.37,-19.29 3.09,-2.82 6.42,-5.15 9.95,-6.93 l 5.74,-5.72 h 19.41 c 2.44,0 8.16,0 14.84,2.05 l 4.22,1.33 c 11.88,3.96 21.42,11.65 26.42,20.65 3.29,3.85 5.71,8.24 6.84,12.05 l 441.14,1049.12 0.79,2.13 c 4.9,14.73 3.6,31.5 -3.46,44.86"
         style="fill:#39747f;fill-opacity:1;fill-rule:nonzero;stroke:none"
         id="path22" />
      <path
         d="m 6111.8,3628.05 c -31.84,0 -55.87,-24.02 -55.87,-55.89 v -688.97 c 0,-31.86 24.03,-55.88 55.87,-55.88 29.97,0 54.35,25.06 54.35,55.88 v 688.97 c 0,30.82 -24.38,55.89 -54.35,55.89"
         style="fill:#f2ae20;fill-opacity:1;fill-rule:nonzero;stroke:none"
         id="path24" />
      <path
         d="m 7090.51,2937.53 h -527.68 l 28.11,1412.29 c 0,31.34 -23.86,55.89 -54.31,55.89 -30.3,0 -55.89,-25.6 -55.89,-55.68 l -28.35,-1466.84 c 0,-30.29 25.59,-55.88 55.89,-55.88 h 582.23 c 31.35,0 55.89,24.55 55.89,55.88 0,30.98 -24.02,54.34 -55.89,54.34"
         style="fill:#d14d22;fill-opacity:1;fill-rule:nonzero;stroke:none"
         id="path26" />
      <path
         d="m 7900.64,2937.53 h -527.9 v 773.07 c 0,31.33 -23.86,55.88 -54.34,55.88 -30.29,0 -55.87,-25.59 -55.87,-55.88 v -827.41 c 0,-30.29 25.58,-55.88 55.87,-55.88 h 582.24 c 31.35,0 55.89,24.55 55.89,55.88 0,30.98 -24.03,54.34 -55.89,54.34"
         style="fill:#6f7350;fill-opacity:1;fill-rule:nonzero;stroke:none"
         id="path28" />
      <path
         d="m 8709.18,2937.53 h -526.33 v 417.36 h 459.21 c 30.97,0 54.34,24.02 54.34,55.89 0,29.95 -24.37,54.33 -54.34,54.33 h -459.21 v 415.82 h 526.33 c 30.96,0 54.32,23.35 54.32,54.33 0,31.34 -23.86,55.89 -54.32,55.89 l -579.43,-0.01 -7.23,-0.27 c -28.9,-3.62 -49.89,-27.01 -49.89,-55.61 V 2883.19 c 0,-31.86 23.37,-55.88 54.32,-55.88 h 582.23 c 30.46,0 54.32,24.55 54.32,55.88 0,30.98 -23.36,54.34 -54.32,54.34"
         style="fill:#39747f;fill-opacity:1;fill-rule:nonzero;stroke:none"
         id="path30" />
      <path
         d="M 89.4531,1454.57 H 624.719 c 28.285,0 50.449,22.17 50.449,50.45 0,27.95 -21.691,49.01 -50.449,49.01 H 138.457 v 918.19 c 0,27.82 -21.977,50.45 -49.0039,50.45 -27.8086,0 -50.4258,-22.63 -50.4258,-50.45 v -967.2 c 0,-27.82 22.6172,-50.45 50.4258,-50.45"
         style="fill:#39747f;fill-opacity:1;fill-rule:nonzero;stroke:none"
         id="path32" />
      <path
         d="m 832.738,1454.57 h 535.282 c 27,0 48.98,22.63 48.98,50.45 0,27.48 -21.52,49.01 -48.98,49.01 H 883.188 v 385.59 h 423.132 c 27.91,0 48.98,21.68 48.98,50.43 0,27.03 -21.98,49.01 -48.98,49.01 H 883.188 v 384.15 h 484.832 c 27.46,0 48.98,21.53 48.98,49.01 0,27.82 -21.98,50.45 -48.98,50.45 H 835.613 l -6.824,-0.25 c -26.094,-3.27 -45.027,-24.38 -45.027,-50.2 v -967.2 c 0,-28.76 21.062,-50.45 48.976,-50.45"
         style="fill:#39747f;fill-opacity:1;fill-rule:nonzero;stroke:none"
         id="path34" />
      <path
         d="m 1725.28,1828.11 190.83,506.6 190.85,-506.6 z m 602.33,-301.88 -361.65,964.33 -2.5,5.17 c -9.46,15.8 -25.85,25.91 -43.21,26.86 -23.4,2.66 -44.03,-10.66 -51.09,-32.03 l -361.13,-963.02 c -10.72,-25.14 -0.54,-53.2 23.65,-65.31 l 6.7,-3.35 h 4.66 c 2.32,-0.65 5.8,-1.44 10.04,-1.44 21.27,0 40.56,14.95 46.16,35.29 l 87.8,234.51 h 458.18 l 88.4,-236.22 2.53,-5.2 c 10.49,-17.51 28.08,-28.38 45.9,-28.38 3.91,0 7.26,0.69 9.82,1.44 h 3.44 l 6.72,3.38 c 24.85,12.44 35.62,40.5 25.58,63.97"
         style="fill:#39747f;fill-opacity:1;fill-rule:nonzero;stroke:none"
         id="path36" />
      <path
         d="m 2514.69,2423.21 h 245.17 c 116.19,0 210.74,-95.17 210.74,-212.16 0,-116.09 -91.45,-208.02 -207.84,-209.3 h -248.07 z m 604.67,-888.9 c -5.22,22.86 -27.54,36.45 -48.4,37.1 -0.21,0.3 -0.44,0.63 -0.67,0.97 -4.92,10.69 -17.46,46.26 -17.46,130.67 0,98.5 -50.45,184.85 -138.47,238.08 96.2,53.51 157.13,154.83 157.13,269.92 0,171.83 -139.8,311.62 -311.63,311.62 h -294.17 c -27.81,0 -50.43,-22.63 -50.43,-50.45 v -967.2 c 0,-27.82 22.62,-50.45 50.43,-50.45 27.02,0 49,22.63 49,50.45 v 395.86 h 238.88 c 3.58,-0.52 14.15,-2.27 28.45,-6.71 25.47,-9.25 72.84,-26.46 110.24,-59.86 41.13,-36.72 61.12,-79.66 61.12,-131.26 0,-86.01 9.62,-140.84 31.19,-177.48 20.83,-40.72 55.78,-55.2 79.52,-55.2 6.89,0 18.82,0 28.97,6.45 8.44,3.66 15.68,9.87 20.69,17.96 7.24,11.7 9.29,26.31 5.61,39.53"
         style="fill:#39747f;fill-opacity:1;fill-rule:nonzero;stroke:none"
         id="path38" />
      <path
         d="m 3319.48,1454.57 c 27.02,0 49.02,22.63 49.02,50.45 v 812.67 l 597.01,-829.33 0.97,-22.3 h 17.01 c 8.85,-7.23 20.13,-11.49 31.99,-11.49 27.02,0 49,22.63 49,50.45 v 960.03 c 0,27.81 -21.98,50.43 -49,50.43 -26.88,0 -50.45,-23.56 -50.45,-50.43 v -805.49 l -606.38,842.58 c -15.73,19.63 -43.06,23.96 -66.42,10.58 l -3.69,-2.1 -3,-3.01 c -10.49,-10.48 -16.49,-24.42 -16.49,-38.25 v -964.34 c 0,-26.86 23.57,-50.45 50.43,-50.45"
         style="fill:#39747f;fill-opacity:1;fill-rule:nonzero;stroke:none"
         id="path40" />
      <path
         d="m 4322.5,1454.57 c 27.02,0 49.02,22.63 49.02,50.45 v 967.2 c 0,27.82 -22,50.45 -49.02,50.45 -29.22,0 -50.41,-21.22 -50.41,-50.45 v -967.2 c 0,-29.23 21.19,-50.45 50.41,-50.45"
         style="fill:#39747f;fill-opacity:1;fill-rule:nonzero;stroke:none"
         id="path42" />
      <path
         d="m 4735.98,1505.02 v 812.68 l 597.03,-829.33 0.95,-22.31 h 17.03 c 8.86,-7.23 20.16,-11.49 31.99,-11.49 27.01,0 48.99,22.63 48.99,50.45 v 960.03 c 0,27.81 -21.98,50.43 -48.99,50.43 -26.87,0 -50.45,-23.56 -50.45,-50.43 v -805.49 l -606.37,842.58 c -15.7,19.58 -43.01,23.96 -66.43,10.61 l -3.68,-2.12 -3.03,-3.02 c -10.47,-10.46 -16.46,-24.41 -16.46,-38.25 v -964.34 c 0,-26.86 23.56,-50.45 50.42,-50.45 27.03,0 49,22.63 49,50.45"
         style="fill:#39747f;fill-opacity:1;fill-rule:nonzero;stroke:none"
         id="path44" />
      <path
         d="m 6475.8,1573.17 3.05,2.7 c 7.81,7.8 11.22,16.05 13.35,22.33 l 1.65,4.94 v 1.43 c 0.96,3.42 1.44,7.08 1.44,10.96 v 364.48 c 0,29.09 -21.53,51.88 -49.01,51.88 h -328.62 c -27.33,0 -50.43,-23.76 -50.43,-51.88 0,-25.65 24.04,-49 50.43,-49 h 276.75 v -291.99 c -78.3,-53.98 -172.89,-83.56 -268.15,-83.56 -254.65,0 -461.85,202.04 -461.85,450.38 0,246.76 207.2,447.52 461.85,447.52 104.12,0 205.76,-34.98 286.38,-98.54 9.55,-8.6 22.78,-13.08 36.4,-12.28 14.67,0.82 27.93,7.39 37.43,19.35 8.54,11.95 12.02,26 9.77,39.56 -2.24,13.32 -9.86,25.22 -20.2,32.56 -96.92,76.6 -221.14,118.79 -349.78,118.79 -310.28,0 -562.73,-245.36 -562.73,-546.96 0,-302.44 252.36,-549.75 562.73,-551.27 126.63,0 250.77,42.12 349.54,118.6"
         style="fill:#39747f;fill-opacity:1;fill-rule:nonzero;stroke:none"
         id="path46" />
      <path
         d="m 579.938,1052.51 c 111.39,0 214.914,-34.45 299.488,-99.631 8.894,-8.039 20.277,-12.418 32.359,-12.418 0,0 0,0 0.02,0 14.363,0 28.371,6.098 39.445,17.18 l 2.313,2.609 c 16.867,21.051 12.273,52.43 -11.438,72.22 -102.867,79.24 -231.488,122.86 -362.187,122.86 C 260.152,1155.33 0,901.281 0,589 0,276.648 260.09,21.2422 579.938,19.6289 c 129.183,0 254.289,42.3906 363.156,123.6521 12.148,10.141 19.496,24.379 20.176,39.059 0.582,12.73 -3.844,24.711 -12.454,33.902 -17.613,20.117 -46.789,23.547 -69.902,8.09 L 879.07,223 C 794.316,157.23 690.867,122.461 579.938,122.461 316.871,122.461 102.844,331.75 102.844,589 c 0,255.578 214.027,463.51 477.094,463.51"
         style="fill:#39747f;fill-opacity:1;fill-rule:nonzero;stroke:none"
         id="path48" />
      <path
         d="M 1614.37,104.352 C 1370.4,107.371 1172,319.961 1172,578.422 c 0,261.418 198.44,474.088 442.37,474.088 242.52,0 440.96,-212.748 442.37,-473.92 -1.41,-258.551 -199.81,-471.211 -442.37,-474.238 z m 0,1050.978 c -299.88,0 -545.13,-258.728 -546.72,-577.068 C 1069.26,254 1309.4,-0.0078125 1614.37,-0.0078125 c 304.18,0 544.99,253.9378125 548.21,578.7458125 -3.22,323.332 -244.03,576.592 -548.21,576.592"
         style="fill:#39747f;fill-opacity:1;fill-rule:nonzero;stroke:none"
         id="path50" />
      <path
         d="m 2938.71,120.961 h -513.33 v 967.869 c 0,28.34 -22.39,51.41 -49.91,51.41 -28.35,0 -51.42,-23.07 -51.42,-51.41 V 71.0586 c 0,-28.3477 23.07,-51.4297 51.42,-51.4297 h 563.24 c 28.82,0 51.42,22.5899 51.42,51.4297 0,28.4414 -22.1,49.9024 -51.42,49.9024"
         style="fill:#39747f;fill-opacity:1;fill-rule:nonzero;stroke:none"
         id="path52" />
      <path
         d="m 3722.43,120.961 h -513.35 v 967.869 c 0,28.34 -22.39,51.41 -49.91,51.41 -28.35,0 -51.4,-23.07 -51.4,-51.41 V 71.0586 c 0,-28.3477 23.05,-51.4297 51.4,-51.4297 h 563.26 c 28.82,0 51.42,22.5899 51.42,51.4297 0,28.4414 -22.1,49.9024 -51.42,49.9024"
         style="fill:#39747f;fill-opacity:1;fill-rule:nonzero;stroke:none"
         id="path54" />
      <path
         d="m 4504.64,1038.93 c 27.99,0 49.91,21.92 49.91,49.9 0,28.34 -22.39,51.41 -49.91,51.41 H 3944.4 l -6.97,-0.26 c -26.63,-3.33 -45.96,-24.84 -45.96,-51.15 V 71.0586 c 0,-29.3203 21.45,-51.4297 49.91,-51.4297 h 563.26 c 27.52,0 49.91,23.082 49.91,51.4297 0,27.9727 -21.92,49.9024 -49.91,49.9024 H 3992.8 v 409.07 h 446.9 c 28.45,0 49.91,22.098 49.91,51.418 0,27.52 -22.39,49.903 -49.91,49.903 h -446.9 v 407.578 h 511.84"
         style="fill:#39747f;fill-opacity:1;fill-rule:nonzero;stroke:none"
         id="path56" />
      <path
         d="m 5253.64,1052.51 c 111.36,0 214.89,-34.44 299.44,-99.619 20.16,-18.282 50.64,-16.461 71.83,4.73 l 2.35,2.629 c 16.87,21.07 12.28,52.47 -11.46,72.22 -102.85,79.24 -231.47,122.86 -362.16,122.86 -319.8,0 -579.94,-254.049 -579.94,-566.33 0,-312.352 260.08,-567.7578 579.94,-569.3711 129.2,0 254.3,42.3906 363.11,123.6331 12.17,10.129 19.53,24.379 20.2,39.078 0.57,12.742 -3.83,24.719 -12.48,33.91 -17.57,20.059 -46.7,23.531 -69.86,8.09 l -1.86,-1.34 c -84.76,-65.77 -188.18,-100.539 -299.11,-100.539 -263.08,0 -477.1,209.289 -477.1,466.539 0,255.578 214.02,463.51 477.1,463.51"
         style="fill:#39747f;fill-opacity:1;fill-rule:nonzero;stroke:none"
         id="path58" />
      <path
         d="m 6523.59,1140.24 h -735.38 c -28.35,0 -51.42,-23.07 -51.42,-51.41 0,-27.98 22.6,-49.9 51.42,-49.9 h 317.04 V 71.0586 c 0,-28.8398 22.6,-51.4297 51.42,-51.4297 27.38,0 51.4,24.0195 51.4,51.4297 V 1038.93 h 315.52 c 29.33,0 51.42,21.45 51.42,49.9 0,28.83 -22.59,51.41 -51.42,51.41"
         style="fill:#39747f;fill-opacity:1;fill-rule:nonzero;stroke:none"
         id="path60" />
      <path
         d="m 7521.75,55.9609 v 0 -0.0117 z M 7980.26,1133.59 c -12.17,5.2 -26.11,5.22 -38.65,0.01 -12.5,-5.17 -22.12,-15.02 -26.67,-27.18 l -381.04,-903.619 -379.99,904.379 -2.85,5.31 c -14.72,22.09 -41.33,30.63 -65.04,21.11 -12.21,-4.5 -22.12,-14.16 -27.33,-26.68 -5.59,-13.46 -5.16,-28.53 0.37,-39.48 L 7487.28,49.2813 c 2.11,-4.2305 6.14,-12.3008 14.8,-18.4727 2.16,-1.9492 5.18,-4.2773 9.04,-6.1602 l 5.03,-5.0195 h 17.68 c 4.37,0 8.45,0.5117 12.21,1.5117 l 5.4,1.6289 c 10.76,3.6016 19.36,10.4805 24.9,19.8125 2.54,3.1368 4.53,6.75 5.79,10.668 l 426.46,1014.19 0.83,2.22 c 4.61,13.73 3.48,28.79 -3.11,41.31 -5.62,10.71 -14.81,18.66 -26.05,22.62"
         style="fill:#39747f;fill-opacity:1;fill-rule:nonzero;stroke:none"
         id="path62" />
      <path
         d="m 8758.52,120.961 h -511.84 v 409.07 h 446.9 c 28.46,0 49.91,22.098 49.91,51.418 0,27.52 -22.38,49.903 -49.91,49.903 h -446.9 v 407.578 h 511.84 c 28,0 49.91,21.92 49.91,49.9 0,28.34 -22.39,51.41 -49.91,51.41 h -560.21 l -6.99,-0.26 c -26.63,-3.33 -45.95,-24.84 -45.95,-51.15 V 71.0586 c 0,-29.3203 21.46,-51.4297 49.91,-51.4297 h 563.24 c 28,0 49.91,22.5899 49.91,51.4297 0,27.9727 -21.91,49.9024 -49.91,49.9024"
         style="fill:#39747f;fill-opacity:1;fill-rule:nonzero;stroke:none"
         id="path64" />
      <path
         d="M 6740.99,1091.43 V 75.0195 c 0,-24.1992 14.83,-47.4179 38.21,-53.6289 33.19,-8.832 63.1,16.8907 63.1,49.668 V 1091.43 c 0,27.98 -22.68,50.65 -50.65,50.65 v 0 c -27.98,0 -50.66,-22.67 -50.66,-50.65"
         style="fill:#39747f;fill-opacity:1;fill-rule:nonzero;stroke:none"
         id="path66" />
      <path
         d="m 8669.5,1649.76 c 45.93,39.97 66,68.31 69.25,73.13 12.09,17.9 7.35,42.22 -10.56,54.3 -17.92,12.07 -42.23,7.34 -54.3,-10.58 -1.65,-2.44 -85.56,-120.17 -349.3,-226.28 112.27,26.17 228.25,61.8 344.91,109.43"
         style="fill:#d34c22;fill-opacity:1;fill-rule:nonzero;stroke:none"
         id="path68" />
      <path
         d="m 7735.46,1369.71 c -46.29,0 -93.46,1.13 -140.15,3.35 -33.84,1.61 -66.81,3.8 -99.06,6.36 -213.33,-11.65 -462.82,-8.83 -754.18,15.69 -21.61,1.96 -40.44,-14.17 -42.26,-35.69 -1.83,-21.54 14.17,-40.45 35.68,-42.26 187.07,-15.75 357.45,-22.74 512.55,-22.74 399.88,0 697.91,46.46 918,108.78 -157.62,-24.92 -304.12,-33.49 -430.58,-33.49"
         style="fill:#d34c22;fill-opacity:1;fill-rule:nonzero;stroke:none"
         id="path70" />
      <path
         d="m 7736.67,1461.07 c -46.73,-0.02 -91.75,1.04 -134.53,3.04 -434.5,20.37 -749.33,131.6 -752.46,132.73 -20.34,7.25 -42.72,-3.29 -50.02,-23.63 -7.29,-20.34 3.26,-42.72 23.6,-50.02 13.14,-4.72 327.04,-115.84 772.67,-137.1 44.39,-2.12 90.98,-3.34 139.53,-3.34 86.69,0 179.51,3.91 276.57,13.47 -98.88,18.65 -190.87,40.73 -275.36,64.85"
         style="fill:#e6b31c;fill-opacity:1;fill-rule:nonzero;stroke:none"
         id="path72" />
      <path
         d="m 9161.74,1867.4 c -12.59,17.54 -37.06,21.55 -54.59,8.92 -323.26,-232.42 -671.12,-342.25 -983.95,-387.72 81.02,-12.77 166.54,-22.83 256.3,-29.55 254.38,63 520.9,172.26 773.32,353.76 17.55,12.6 21.55,37.05 8.92,54.59"
         style="fill:#e6b31c;fill-opacity:1;fill-rule:nonzero;stroke:none"
         id="path74" />
      <path
         d="m 8393.6,1946.28 c -8.16,-6.69 -15.03,-11.66 -22.77,-16.65 -7.48,-5.16 -15.16,-9.74 -22.89,-14.21 -7.62,-4.7 -15.45,-8.93 -23.4,-12.89 -7.96,-3.92 -15.67,-8.49 -23.85,-11.85 -16.23,-7.1 -32.33,-14.6 -49.12,-20.17 l -25.04,-8.78 -25.59,-6.85 c -8.54,-2.19 -17.02,-4.7 -25.62,-6.63 l -25.99,-4.85 -25.98,-4.81 -26.24,-2.8 c -34.95,-4.45 -70.15,-3.38 -105.08,-3.15 -17.44,1.47 -34.87,2.69 -52.22,4.51 -17.45,0.99 -34.41,5.46 -51.55,8.28 l -25.62,4.79 -12.78,2.39 -12.53,3.51 -49.82,14.64 c -16.71,4.35 -32.69,10.95 -48.65,17.48 l -47.74,19.42 c -30.9,15 -61.04,31.44 -90.82,47.84 32.83,-9.95 64.74,-21.36 96.93,-31.47 l 49,-12.72 c 16.31,-4.05 32.26,-9.27 48.92,-11.64 32.99,-6.01 65.6,-12.94 98.8,-15.54 32.92,-4.93 66.11,-4.25 99.03,-5.86 32.93,1.26 65.89,1.96 98.29,7.21 l 24.41,2.93 24.05,4.86 24.04,4.84 c 7.94,1.9 15.74,4.36 23.61,6.51 l 23.56,6.64 23.02,8.17 c 15.6,4.87 30.4,11.58 45.4,17.85 7.61,2.95 14.59,7.04 21.93,10.48 0.38,0.19 0.75,0.42 1.14,0.61 -17.39,2.9 -34.74,5.76 -51.6,11.01 -41.36,10.85 -80.97,27.71 -117.9,48.47 -36.93,20.82 -71.07,46.19 -101.08,75.47 -30.23,28.9 -56.83,61.66 -77.06,97.66 26.85,-31.28 57.71,-58.18 90.1,-82.26 32.61,-23.78 67.05,-44.65 103.58,-60.48 36.29,-16.06 73.73,-29.46 112.57,-36.37 19.09,-4.84 38.75,-6.65 58.21,-9.15 9.69,-1.66 19.61,-1.32 29.42,-1.8 l 29.43,-0.99 0.72,-0.03 c 13.59,-0.45 24.23,-11.83 23.77,-25.41 -0.24,-7.33 -3.75,-13.87 -8.99,-18.21 z m -404.74,-371.05 c -1.11,-0.8 -2.14,-1.65 -3.11,-2.55 h -61.24 c -1.4,6.15 -4.5,11.67 -8.8,15.98 l 87.86,53.08 c 29.85,1.32 59.51,3.73 88.84,7.19 z m 912.17,513.52 c -1063.7,-232.63 -839.19,653.55 -1449.71,539.32 -82.01,-15.34 -210.07,-119.48 -210.07,-119.48 l -283.61,7.24 c -11.32,-4.11 -16.84,-16.86 -12.08,-27.92 18.33,-42.57 214.18,-199.9 214.18,-199.9 19.12,-252.08 234.56,-537.35 501.01,-609.61 71.6,-19.41 144.49,-30.92 217.11,-35.5 l -62.89,-38 c -3.01,-1.81 -5.62,-4.04 -7.81,-6.56 h -58.2 c -12.64,0 -23.48,-7.18 -29.02,-17.61 90.6,-27.54 190.81,-52.97 300.15,-74.05 h 31.61 c 18.24,0 33,14.78 33,33 0,6.92 -2.14,13.34 -5.78,18.64 l 166.62,118.6 c 241.63,60.23 589.68,225.86 677.33,379.2 8.98,15.72 -4.15,36.5 -21.84,32.63"
         style="fill:#39747f;fill-opacity:1;fill-rule:nonzero;stroke:none"
         id="path76" />
      <path
         d="m 8624.2,1355.51 c -561.18,0 -990.22,136.29 -1260.85,257.57 -326.78,146.46 -496.44,299.91 -503.5,306.37 -15.94,14.58 -17.05,39.32 -2.47,55.27 14.58,15.94 39.29,17.03 55.25,2.48 v 0 c 1.66,-1.52 169.64,-152.94 486.1,-294.24 291.84,-130.28 773.42,-278.47 1410.48,-244.21 21.48,1.08 40,-15.39 41.17,-36.97 1.16,-21.56 -15.39,-40 -36.97,-41.16 -64.64,-3.47 -127.71,-5.11 -189.21,-5.11"
         style="fill:#6f7350;fill-opacity:1;fill-rule:nonzero;stroke:none"
         id="path78" />
    </g>
  </g>
</svg>
